<?xml version="1.0" encoding="UTF-8" standalone="no"?>
<!-- Generator: Adobe Illustrator 16.0.0, SVG Export Plug-In . SVG Version: 6.00 Build 0)  -->

<svg
   xmlns:dc="http://purl.org/dc/elements/1.1/"
   xmlns:cc="http://creativecommons.org/ns#"
   xmlns:rdf="http://www.w3.org/1999/02/22-rdf-syntax-ns#"
   xmlns:svg="http://www.w3.org/2000/svg"
   xmlns="http://www.w3.org/2000/svg"
   xmlns:sodipodi="http://sodipodi.sourceforge.net/DTD/sodipodi-0.dtd"
   xmlns:inkscape="http://www.inkscape.org/namespaces/inkscape"
   version="1.1"
   id="Layer_1"
   x="0px"
   y="0px"
   width="132"
   height="132"
   viewBox="0 0 132 132"
   enable-background="new 0 0 512 512"
   xml:space="preserve"
   inkscape:version="0.91 r13725"
   sodipodi:docname="clock-time.svg"><metadata
     id="metadata9"><rdf:RDF><cc:Work
         rdf:about=""><dc:format>image/svg+xml</dc:format><dc:type
           rdf:resource="http://purl.org/dc/dcmitype/StillImage" /><dc:title /></cc:Work></rdf:RDF></metadata><defs
     id="defs7" /><sodipodi:namedview
     pagecolor="#ffffff"
     bordercolor="#666666"
     borderopacity="1"
     objecttolerance="10"
     gridtolerance="10"
     guidetolerance="10"
     inkscape:pageopacity="0"
     inkscape:pageshadow="2"
     inkscape:window-width="1680"
     inkscape:window-height="993"
     id="namedview5"
     showgrid="false"
     fit-margin-top="1"
     fit-margin-left="1"
     fit-margin-right="1"
     fit-margin-bottom="1"
     inkscape:zoom="5.437651"
     inkscape:cx="26.915915"
     inkscape:cy="65.592569"
     inkscape:window-x="0"
     inkscape:window-y="25"
     inkscape:window-maximized="1"
     inkscape:current-layer="Layer_1" /><path
     d="M 66,1 C 30.104005,1 1,30.10401 1,66 c 0,35.89599 29.104005,65 65,65 35.896,0 65,-29.10401 65,-65 C 131,30.10401 101.896,1 66,1 Z m 4.0625,121.66882 0,-7.91882 -8.125,0 0,7.91882 C 33.825255,120.66932 11.330938,98.17474 9.3314257,70.0625 l 7.9185743,0 0,-8.125 -7.9185743,0 C 11.330938,33.82526 33.825255,11.330944 61.9375,9.331414 l 0,7.918586 8.125,0 0,-7.918586 c 28.112245,1.99953 50.60682,24.493846 52.60633,52.606086 l -7.91883,0 0,8.125 7.91883,0 C 120.66932,98.17474 98.174745,120.66932 70.0625,122.66882 Z M 95.905333,48.734362 c 0.555547,0.968162 0.22217,2.213822 -0.745977,2.777242 L 73.700215,63.897406 c 0.186368,0.690378 0.42453,1.356862 0.42453,2.102594 0,4.491084 -3.637967,8.125 -8.125,8.125 -4.48703,0 -8.125,-3.63415 -8.125,-8.125 L 35.824512,53.272948 c -1.943906,-1.12684 -2.610411,-3.610282 -1.487637,-5.554198 1.11871,-1.952028 3.606231,-2.618538 5.550137,-1.491698 l 22.177186,12.806534 c 1.182189,-0.66651 2.475587,-1.158586 3.935547,-1.158586 2.269415,0 4.312345,0.936416 5.788302,2.443844 L 93.128106,47.988396 c 0.952401,-0.56316 2.198066,-0.2301 2.777227,0.745966 z"
     id="path3"
     style="fill:#414141;fill-opacity:1"
     inkscape:connector-curvature="0" /></svg>